# xmcd CD database file
#
# Track frame offsets:
#	150
#	19192
#	38645
#	56587
#	69535
#	88260
#	105470
#	118300
#	140860
#	158930
#	174205
#	194310
#	209300
#
# Disc length: 2960 seconds
#
# Revision: 3
# Processed by: cddbd v1.5PL3 Copyright (c) Steve Scherf et al.
# Submitted via: CDex 1.51
#
DISCID=b90b8e0d
DTITLE=Count Basie - The Jazz Collector Edition
DYEAR=1954
DGENRE=Jazz
TTITLE0=One O'Clock Jump
TTITLE1=Dance Of The Gremlins
TTITLE2=Basie Talk
TTITLE3=Blee Blop Blues
TTITLE4=Bubbles
TTITLE5=You For Me
TTITLE6=Basie Goes Wess
TTITLE7=Straight Line
TTITLE8=Let's Jump
TTITLE9=Ska-Di-De-Dee-Doo
TTITLE10=Slow But Sure
TTITLE11=Two For The Blues
TTITLE12=Jazz Me Blues
EXTD=YEAR: 1954
EXTT0=
EXTT1=
EXTT2=
EXTT3=
EXTT4=
EXTT5=
EXTT6=
EXTT7=
EXTT8=
EXTT9=
EXTT10=
EXTT11=
EXTT12=
PLAYORDER=
